<?xml version="1.0" standalone="no"?>
<!DOCTYPE svg PUBLIC "-//W3C//DTD SVG 20010904//EN"
 "http://www.w3.org/TR/2001/REC-SVG-20010904/DTD/svg10.dtd">
<svg version="1.0" xmlns="http://www.w3.org/2000/svg"
 width="789.000000pt" height="1024.000000pt" viewBox="0 0 789.000000 1024.000000"
 preserveAspectRatio="xMidYMid meet">
<metadata>
Created by potrace 1.15, written by Peter Selinger 2001-2017
</metadata>
<g transform="translate(0.000000,1024.000000) scale(0.100000,-0.100000)"
fill="#000000" stroke="none">
<path d="M3375 10099 c-1004 -38 -2141 -211 -3091 -470 l-111 -31 -6 -540
c-11 -875 -8 -4238 3 -4384 22 -274 67 -551 131 -809 72 -286 234 -711 363
-948 l53 -99 27 114 c14 62 143 599 285 1193 l258 1080 43 16 c43 16 64 39 58
63 -2 7 -147 140 -323 296 -176 156 -427 378 -557 494 -131 115 -238 212 -238
216 0 3 46 29 102 58 224 113 423 215 426 218 2 1 -9 40 -23 86 -57 174 -372
1293 -365 1296 3 1 244 -63 534 -143 291 -80 536 -145 545 -145 11 0 69 102
186 326 94 179 175 332 180 340 8 12 75 -54 320 -313 434 -459 545 -571 539
-548 -19 78 -412 2030 -409 2033 2 3 125 -66 703 -395 100 -57 193 -108 207
-113 25 -9 28 -5 305 550 154 308 280 562 280 565 0 6 -156 4 -425 -6z"/>
<path d="M4168 9943 c110 -226 473 -957 477 -961 6 -6 84 36 508 277 235 134
429 242 431 240 1 -2 -91 -461 -205 -1019 -114 -558 -207 -1019 -206 -1023 2
-5 193 192 426 438 l424 446 21 -38 c12 -21 93 -174 181 -340 105 -200 164
-303 174 -303 9 0 254 65 545 145 290 81 530 144 533 141 5 -5 -258 -944 -339
-1209 -28 -92 -49 -169 -47 -171 2 -2 120 -63 261 -135 142 -73 260 -135 262
-139 2 -4 -247 -229 -553 -501 -517 -458 -557 -496 -553 -522 3 -23 12 -31 52
-44 44 -15 49 -19 58 -58 6 -23 130 -555 277 -1182 147 -627 271 -1144 275
-1149 11 -11 175 325 243 499 147 373 241 761 293 1205 23 196 28 1130 19
3356 l-7 1702 -157 41 c-902 238 -1988 392 -3190 451 -112 5 -221 10 -242 10
l-38 0 77 -157z"/>
<path d="M3672 9335 c-149 -297 -285 -557 -303 -579 -30 -35 -36 -38 -73 -34
-70 8 -203 70 -435 201 -123 70 -226 125 -229 123 -2 -3 75 -394 172 -870 113
-558 176 -887 176 -926 0 -136 -94 -218 -203 -176 -34 13 -117 95 -451 446
-225 237 -410 429 -411 428 -2 -2 -62 -115 -134 -253 -73 -137 -139 -256 -148
-262 -21 -16 -104 -17 -175 -2 -29 6 -201 51 -381 101 -181 49 -331 87 -334
84 -7 -7 177 -662 248 -885 53 -165 57 -193 35 -245 -27 -65 -70 -99 -215
-171 -78 -38 -140 -73 -139 -77 2 -3 211 -191 465 -417 l463 -410 46 19 c124
54 585 187 843 245 613 136 1060 140 1384 13 68 -27 81 -30 105 -18 55 25 169
62 257 81 118 26 414 36 580 20 386 -39 819 -136 1287 -291 103 -34 193 -58
199 -54 24 14 904 799 908 809 2 6 -58 42 -132 81 -150 77 -179 99 -209 159
-30 57 -26 93 25 250 60 183 260 886 253 892 -2 3 -148 -35 -323 -82 -175 -48
-345 -94 -378 -101 -87 -19 -168 -18 -193 4 -12 9 -77 125 -146 256 -69 132
-129 243 -133 247 -5 4 -177 -170 -383 -388 -445 -469 -456 -480 -514 -488
-89 -14 -162 58 -172 168 -4 41 32 235 175 932 99 484 178 881 176 883 -2 2
-106 -55 -232 -127 -219 -124 -386 -201 -440 -201 -36 0 -58 15 -84 57 -13 21
-143 276 -290 568 l-267 529 -270 -539z"/>
<path d="M3100 5583 c-380 -40 -785 -132 -1225 -278 -305 -101 -313 -105 -321
-153 -8 -52 -12 -57 -63 -74 l-45 -14 -267 -1115 c-146 -613 -266 -1115 -265
-1115 0 -1 64 9 141 22 225 39 811 121 1055 149 439 49 909 73 1184 60 155 -7
156 -7 156 -30 0 -28 30 -51 83 -66 61 -16 407 -27 597 -18 237 10 303 28 303
83 l0 24 164 7 c492 22 1335 -57 2228 -209 77 -13 142 -22 144 -20 4 4 -506
2181 -518 2210 -6 13 -26 26 -54 33 -42 12 -45 16 -51 55 -4 22 -10 46 -14 52
-16 24 -373 147 -662 228 -407 113 -795 176 -1087 176 -240 0 -397 -31 -557
-110 l-79 -39 -76 38 c-163 82 -315 112 -566 109 -93 0 -186 -3 -205 -5z m327
-74 c158 -13 294 -47 393 -96 l75 -38 -3 -610 c-1 -335 -5 -782 -8 -993 -6
-349 -8 -383 -23 -376 -88 38 -205 77 -291 96 -96 21 -128 23 -390 23 -311 -1
-441 -12 -764 -66 -338 -57 -648 -133 -1023 -252 -112 -36 -203 -61 -203 -58
0 13 460 2004 464 2008 2 2 73 29 157 59 406 146 811 248 1144 288 222 27 302
30 472 15z m1525 -19 c308 -39 603 -109 949 -223 293 -97 337 -115 343 -135
19 -64 446 -1979 444 -1989 -2 -8 -49 3 -153 38 -661 219 -1314 339 -1846 339
-267 0 -425 -26 -598 -97 -46 -18 -85 -33 -86 -31 -2 2 -4 448 -6 993 l-4 990
75 38 c76 38 187 70 295 86 116 17 424 12 587 -9z"/>
<path d="M3039 5030 c-260 -25 -710 -122 -979 -211 l-130 -43 -8 -41 c-5 -22
-7 -42 -6 -44 2 -1 67 17 146 42 403 128 776 202 1079 214 194 7 327 -11 465
-64 11 -4 14 6 14 39 l0 45 -72 21 c-40 12 -96 26 -124 31 -76 15 -288 21
-385 11z"/>
<path d="M2863 4605 c-276 -41 -680 -130 -948 -207 -78 -23 -79 -24 -87 -62
-5 -22 -6 -41 -4 -44 3 -2 58 12 123 32 140 42 280 78 418 106 186 38 559 99
685 111 189 18 378 1 509 -45 60 -22 61 -21 61 24 0 47 -5 50 -130 82 -58 16
-118 21 -270 24 -168 3 -218 0 -357 -21z"/>
<path d="M2870 4195 c-268 -41 -605 -119 -920 -215 -222 -67 -218 -65 -228
-113 -5 -23 -8 -43 -7 -45 1 -1 28 7 60 18 436 150 1031 281 1351 296 181 9
284 -4 477 -63 16 -5 18 0 15 38 -3 42 -4 43 -55 61 -158 54 -428 63 -693 23z"/>
<path d="M4519 5030 c-91 -10 -190 -33 -241 -55 -35 -14 -38 -18 -38 -56 0
-38 2 -41 23 -34 164 54 198 59 397 59 204 1 259 -5 535 -55 207 -39 391 -85
588 -149 88 -28 161 -49 164 -46 3 3 1 22 -4 43 -8 37 -10 39 -103 71 -419
147 -1050 253 -1321 222z"/>
<path d="M4490 4624 c-84 -15 -180 -38 -212 -51 -35 -14 -38 -18 -38 -55 0
-37 2 -40 23 -34 284 83 449 84 910 6 351 -59 621 -121 805 -184 39 -14 72
-23 72 -20 0 3 -5 25 -11 48 l-11 43 -131 36 c-271 75 -613 149 -862 188 -133
20 -479 35 -545 23z"/>
<path d="M4429 4204 c-42 -7 -102 -23 -133 -34 -55 -21 -56 -22 -56 -61 0 -44
1 -45 61 -23 144 51 357 65 579 40 287 -34 679 -122 1066 -240 l206 -64 -6 30
c-3 17 -6 36 -6 44 0 30 -563 190 -915 259 -335 65 -613 83 -796 49z"/>
<path d="M2710 2869 c-421 -23 -1319 -137 -1818 -232 l-63 -12 99 -147 c312
-459 758 -918 1257 -1293 309 -232 644 -436 1020 -620 263 -128 426 -197 608
-255 l127 -41 148 47 c327 104 833 353 1235 608 577 367 1135 878 1521 1394
92 123 211 301 205 306 -13 12 -549 97 -944 150 -532 71 -810 95 -1216 103
l-316 6 -39 -31 c-94 -76 -255 -97 -674 -89 -338 6 -429 22 -512 92 l-30 25
-231 -1 c-128 -1 -297 -6 -377 -10z"/>
</g>
</svg>
